<svg width="32" height="32" viewBox="0 0 32 32" fill="none" xmlns="http://www.w3.org/2000/svg">
<path d="M11.5563 8.92344C12.6201 8.92344 13.5805 9.56501 13.9874 10.5484C14.3956 11.5319 14.1698 12.6645 13.4172 13.4171C12.6647 14.1696 11.5321 14.3954 10.5486 13.9872C9.56521 13.5803 8.92361 12.6199 8.92361 11.5561C8.92616 10.1033 10.1035 8.92599 11.5563 8.92344ZM14.0741 16.2155C12.5677 17.0293 10.7615 17.0663 9.22451 16.3137C7.68753 15.5612 6.60717 14.1135 6.32656 12.4247C6.04467 10.736 6.59569 9.01643 7.80613 7.80598C9.01657 6.59554 10.736 6.04452 12.4249 6.32641C14.1137 6.60702 15.5614 7.68739 16.3139 9.22436C17.0664 10.7613 17.0294 12.5674 16.2157 14.074C17.2067 13.5625 18.3993 13.6352 19.3215 14.2628C19.5945 12.8253 20.8508 11.7845 22.3151 11.7845H23.1123V10.8049C23.1085 10.1607 22.6455 9.61102 22.0116 9.49876L20.2807 9.19518C20.0779 8.44136 19.7768 7.71689 19.3865 7.03957L20.3955 5.5995C20.7526 5.07526 20.6888 4.3712 20.2449 3.9184L19.2067 2.86354C18.7488 2.4082 18.0307 2.3457 17.5026 2.71686L16.0625 3.72577C15.3852 3.33547 14.6607 3.03444 13.9069 2.83163L13.6033 1.10076C13.4911 0.465566 12.9414 0.00254693 12.2972 0H10.8278C10.1837 0.00255085 9.63397 0.465566 9.52171 1.10076L9.21814 2.83163C8.46431 3.03444 7.73857 3.3342 7.06252 3.72577L5.60972 2.71686C5.08421 2.35333 4.37374 2.41584 3.9184 2.86354L2.86354 3.9184C2.40692 4.37629 2.34443 5.09697 2.71686 5.62631L3.72577 7.06637C3.33547 7.74239 3.03444 8.46689 2.83163 9.22072L1.10076 9.52429V9.52557C0.465566 9.63653 0.00254693 10.1875 0 10.8317V12.3011C0.00255085 12.9452 0.465566 13.4949 1.10076 13.6072L2.83163 13.9108C3.03444 14.6646 3.33547 15.3891 3.72577 16.0651L2.71686 17.4988C2.34442 18.0281 2.40691 18.7488 2.86354 19.2067L3.9184 20.245C4.37502 20.7028 5.0957 20.7666 5.62631 20.3955L7.06637 19.3865C7.74239 19.7768 8.46689 20.0779 9.22072 20.2807L9.52429 22.0116H9.52557C9.63653 22.6455 10.1875 23.1085 10.8317 23.1123H11.8113V22.3151C11.81 20.8508 12.8508 19.5945 14.2896 19.3215C13.6531 18.4031 13.5703 17.2117 14.0741 16.2155ZM32 22.3151V23.4707C31.9936 23.9758 31.6288 24.4031 31.1313 24.4898L29.7665 24.7284C29.6084 25.3304 29.3711 25.9095 29.0612 26.449L29.8584 27.5855C30.1517 28.0026 30.102 28.5702 29.7397 28.9312L28.9196 29.7513L28.9209 29.75C28.5612 30.111 27.9923 30.1607 27.5752 29.8674L26.4489 29.0612C25.9158 29.3686 25.3456 29.6059 24.7512 29.7666L24.4898 31.1314C24.403 31.6288 23.9757 31.9936 23.4706 32H22.315C21.8048 32.0013 21.3673 31.634 21.2806 31.1314L21.042 29.7666C20.4477 29.6059 19.8762 29.3686 19.3431 29.0612L18.2066 29.8584H18.2079C17.7895 30.1518 17.2219 30.102 16.8622 29.7398L16.0421 28.9197V28.9209C15.6811 28.5612 15.6313 27.9923 15.9247 27.5753L16.7244 26.449C16.417 25.9158 16.1798 25.3457 16.0191 24.7513L14.6543 24.4898C14.1517 24.4018 13.7844 23.9656 13.7856 23.4541V22.3151C13.7844 21.8049 14.1517 21.3674 14.6543 21.2806L16.0191 21.0421C16.1798 20.4477 16.417 19.8763 16.7244 19.3431L15.9273 18.2105H15.9285C15.6352 17.7934 15.6849 17.2258 16.0459 16.8648L16.866 16.0447L16.8647 16.0459C17.2257 15.685 17.7933 15.6352 18.2104 15.9286L19.3431 16.7258V16.7245C19.8762 16.4171 20.4477 16.1799 21.042 16.0191L21.2806 14.6543C21.3673 14.1518 21.8048 13.7844 22.315 13.7857H23.4706C23.9757 13.7934 24.403 14.1582 24.4898 14.6543L24.7283 16.0191C25.3303 16.1773 25.9094 16.4145 26.4489 16.7245L27.5816 15.9273V15.9286C27.9987 15.6352 28.5676 15.685 28.9273 16.0459L29.7474 16.8661V16.8648C30.1084 17.2258 30.1581 17.7934 29.8648 18.2105L29.0612 19.3431C29.3686 19.8763 29.6059 20.4477 29.7666 21.0421L31.1314 21.2806C31.6339 21.3674 32.0012 21.8049 32 22.3151ZM26.0179 22.8929C26.0179 21.6288 25.2565 20.4898 24.0894 20.0064C22.921 19.523 21.5766 19.7896 20.6837 20.6837C19.7895 21.5766 19.523 22.921 20.0064 24.0894C20.4898 25.2565 21.6289 26.018 22.8929 26.018C24.6186 26.018 26.0179 24.6186 26.0179 22.8929Z" fill="#325FF4"/>
</svg>
