<svg width="32" height="32" viewBox="0 0 32 32" fill="none" xmlns="http://www.w3.org/2000/svg">
<path d="M24.2761 32H6.62076C2.96822 32 0 29.0317 0 25.3792V7.72385C0 4.07131 2.96829 1.10309 6.62076 1.10309H20.9658V3.31001H6.62076C4.18213 3.31001 2.20692 5.28522 2.20692 7.72385V25.3792C2.20692 27.8179 4.18213 29.7931 6.62076 29.7931H24.2761C26.7148 29.7931 28.69 27.8179 28.69 25.3792V11.0342H30.8969V25.3792C30.8969 29.0318 27.9286 32 24.2761 32Z" fill="white"/>
<path d="M27.5861 8.82768C25.1475 8.82768 23.1723 6.85247 23.1723 4.41384C23.1723 1.97521 25.1475 0 27.5861 0C30.0248 0 32 1.97521 32 4.41384C32 6.85247 30.0248 8.82768 27.5861 8.82768ZM27.5861 2.20692C26.3723 2.20692 25.3792 3.20004 25.3792 4.41384C25.3792 5.62765 26.3723 6.62076 27.5861 6.62076C28.8 6.62076 29.7931 5.62765 29.7931 4.41384C29.7931 3.20004 28.8 2.20692 27.5861 2.20692Z" fill="white"/>
<path d="M6.3005 22.8524L4.73358 21.2855L13.2414 12.789L17.6552 17.2028L23.4924 11.3547L25.0593 12.9216L17.655 20.3149L13.2412 15.9011L6.3005 22.8524Z" fill="white"/>
</svg>
