<svg width="131" height="32" viewBox="0 0 131 32" fill="none" xmlns="http://www.w3.org/2000/svg">
<path d="M0 0.973022H8.20943V31.0269H0V0.973022Z" fill="#424242"/>
<path d="M13.6122 0.973022H26.2421C28.1015 0.973022 29.7855 1.22347 31.294 1.68859C32.8026 2.15371 34.1007 2.8335 35.1532 3.76374C36.2056 4.6582 37.0476 5.76733 37.609 7.09114C38.1703 8.41494 38.486 9.88186 38.486 11.5634V11.635C38.486 13.4239 38.1703 14.9624 37.5388 16.322C36.9073 17.6816 36.0302 18.7907 34.9076 19.7209C33.7849 20.6512 32.4518 21.331 30.873 21.7961C29.3294 22.2612 27.6103 22.4759 25.786 22.4759H21.7865V31.0269H13.6122V0.973022ZM25.6457 15.8926C27.1191 15.8926 28.2418 15.5349 29.0838 14.8193C29.9258 14.1037 30.3117 13.1735 30.3117 11.957V11.8854C30.3117 10.5974 29.8907 9.59563 29.0838 8.91584C28.2418 8.23605 27.0841 7.91404 25.6106 7.91404H21.7865V15.8926H25.6457Z" fill="#424242"/>
<path d="M39.5737 0.973022H48.6953L55.3961 20.0072L62.097 0.973022H71.0782L59.1149 31.0269H51.537L39.5737 0.973022Z" fill="#424242"/>
<path d="M131 7.05536L72.0605 7.05536L62.6934 31.0269L121.633 31.0269L131 7.05536Z" fill="#325FF4"/>
<path d="M73.3235 13.2808H78.1299C81.989 13.2808 84.6553 15.9641 84.6553 19.5062V19.542C84.6553 23.0841 81.989 25.8032 78.1299 25.8032H73.3235V13.2808ZM78.0948 23.2987C80.305 23.2987 81.8136 21.796 81.8136 19.542V19.5062C81.8136 17.2879 80.3401 15.7137 78.0948 15.7137H75.9898V23.2987H78.0948Z" fill="white"/>
<path d="M90.3738 13.1735H92.8647L98.1272 25.8033H95.2855L94.1628 22.9768H88.9705L87.8479 25.8033H85.0763L90.3738 13.1735ZM93.2156 20.5438L91.5667 16.4651L89.9177 20.5438H93.2156Z" fill="white"/>
<path d="M101.285 15.821H97.5659V13.2808H107.74V15.821H103.986V25.8032H101.285V15.821Z" fill="white"/>
<path d="M112.441 13.1735H114.932L120.194 25.8033H117.353L116.23 22.9768H111.038L109.915 25.8033H107.144L112.441 13.1735ZM115.283 20.5438L113.634 16.4651L111.985 20.5438H115.283Z" fill="white"/>
</svg>
